<svg xmlns="http://www.w3.org/2000/svg" xmlns:xlink="http://www.w3.org/1999/xlink" preserveAspectRatio="xMidYMid" width="9" height="5" viewBox="0 0 9 5">
  <defs>
    <style>

      .cls-2 {
        fill: #000;
      }
    </style>
  </defs>
  <path d="M8.806,1.107 C8.806,1.107 5.025,4.809 5.025,4.809 C4.880,4.952 4.686,5.006 4.496,4.990 C4.306,5.006 4.111,4.952 3.966,4.809 C3.966,4.809 0.185,1.107 0.185,1.107 C-0.076,0.851 -0.076,0.437 0.185,0.181 C0.446,-0.074 0.869,-0.074 1.130,0.181 C1.130,0.181 4.496,3.477 4.496,3.477 C4.496,3.477 7.861,0.181 7.861,0.181 C8.122,-0.074 8.545,-0.074 8.806,0.181 C9.067,0.437 9.067,0.851 8.806,1.107 Z" id="path-1" class="cls-2" fill-rule="evenodd"/>
</svg>
