<svg xmlns="http://www.w3.org/2000/svg" xmlns:xlink="http://www.w3.org/1999/xlink" preserveAspectRatio="xMidYMid" width="24" height="25" viewBox="0 0 24 25">
  <defs>
    <style>

      .cls-2 {
        fill: #171717;
      }
    </style>
  </defs>
  <path d="M11.998,0.001 C5.370,0.001 -0.004,5.518 -0.004,12.326 C-0.004,17.770 3.435,22.389 8.205,24.019 C8.805,24.132 9.024,23.751 9.024,23.425 C9.024,23.132 9.013,22.357 9.008,21.329 C5.669,22.074 4.964,19.677 4.964,19.677 C4.419,18.253 3.632,17.874 3.632,17.874 C2.542,17.109 3.714,17.125 3.714,17.125 C4.919,17.212 5.553,18.395 5.553,18.395 C6.623,20.278 8.362,19.734 9.046,19.419 C9.155,18.623 9.465,18.080 9.808,17.771 C7.143,17.460 4.341,16.403 4.341,11.681 C4.341,10.335 4.808,9.235 5.576,8.374 C5.453,8.062 5.041,6.809 5.694,5.112 C5.694,5.112 6.701,4.781 8.994,6.375 C9.952,6.102 10.978,5.965 11.999,5.961 C13.018,5.965 14.045,6.102 15.004,6.375 C17.295,4.781 18.301,5.112 18.301,5.112 C18.956,6.809 18.544,8.062 18.421,8.374 C19.190,9.235 19.655,10.335 19.655,11.681 C19.655,16.415 16.848,17.457 14.174,17.762 C14.605,18.142 14.989,18.894 14.989,20.044 C14.989,21.692 14.975,23.021 14.975,23.425 C14.975,23.754 15.191,24.138 15.800,24.018 C20.565,22.385 24.001,17.769 24.001,12.326 C24.001,5.518 18.627,0.001 11.998,0.001 Z" id="path-1" class="cls-2" fill-rule="evenodd"/>
</svg>
