<svg xmlns="http://www.w3.org/2000/svg" preserveAspectRatio="xMidYMid" width="24" height="25" viewBox="0 0 24 25"><defs><style>.cls-2 { fill: #171717; }</style></defs><path d="M11.998 0C5.37 0-.004 5.52-.004 12.327c0 5.444 3.44 10.063 8.21 11.693.6.112.818-.27.818-.595 0-.293-.01-1.068-.016-2.096-3.34.744-4.044-1.653-4.044-1.653-.545-1.424-1.332-1.803-1.332-1.803-1.09-.765.082-.75.082-.75 1.205.088 1.84 1.27 1.84 1.27 1.07 1.884 2.808 1.34 3.492 1.025.11-.797.42-1.34.762-1.65-2.665-.31-5.467-1.367-5.467-6.09 0-1.345.468-2.445 1.236-3.306-.123-.312-.535-1.565.118-3.262 0 0 1.007-.33 3.3 1.263.958-.273 1.984-.41 3.005-.414 1.018.005 2.045.142 3.004.415C17.294 4.78 18.3 5.112 18.3 5.112c.656 1.697.244 2.95.12 3.262.77.86 1.235 1.96 1.235 3.307 0 4.735-2.807 5.777-5.48 6.082.43.38.814 1.132.814 2.282 0 1.648-.015 2.977-.015 3.38 0 .33.216.714.825.594 4.765-1.633 8.2-6.25 8.2-11.692C24 5.518 18.628 0 12 0z" id="path-1" class="cls-2" fill-rule="evenodd"/></svg>